<svg xmlns="http://www.w3.org/2000/svg" viewBox="0 0 112.035 105.659">
  <defs>
    <style>
      .cls-1 {
        fill: #ffb4aa;
      }

      .cls-2 {
        fill: #fff;
      }

      .cls-2, .cls-3, .cls-5, .cls-6 {
        stroke: #707070;
      }

      .cls-3 {
        fill: #d3cfcf;
      }

      .cls-4 {
        fill: #473145;
        font-size: 15px;
        font-family: ArialMT, Arial;
      }

      .cls-5 {
        fill: #707070;
      }

      .cls-6, .cls-8 {
        fill: none;
      }

      .cls-7 {
        stroke: none;
      }
    </style>
  </defs>
  <g id="aktuelt_logo" transform="translate(-49 -513.341)">
    <ellipse id="Ellipse_7" data-name="Ellipse 7" class="cls-1" cx="56.018" cy="52.83" rx="56.018" ry="52.83" transform="translate(49 513.341)"/>
    <g id="Group_18" data-name="Group 18" transform="translate(68.74 545.106)">
      <path id="Path_40" data-name="Path 40" class="cls-2" d="M.014.253,66.119,0s4.246,42.857.629,45.145C64.315,46.684,35.6,47.56,16.43,46.968c-8.988-.277-16.8.92-16.417-1.823C1.186,36.755.014.253.014.253Z" transform="translate(68.208 47.154) rotate(-180)"/>
      <path id="Path_41" data-name="Path 41" class="cls-3" d="M2018.617,289.261h11.175A102.29,102.29,0,0,1,2026,300.427c-1.206,2.954-1.2,4.7-4.582,8.025-.4.076-2.211,1.3-2.8.895s.017-.928,0-1.774c-.044-1.04.033-2.748,0-4.87C2018.527,296.932,2018.617,289.261,2018.617,289.261Z" transform="translate(-1950.532 -262.312)"/>
      <text id="NEWS" class="cls-4" transform="translate(11.286 15.212)"><tspan x="0" y="0">NEWS</tspan></text>
      <g id="Rectangle_131" data-name="Rectangle 131" class="cls-5" transform="translate(7.772 23.297)">
        <rect class="cls-7" width="22.841" height="14.935" rx="5"/>
        <rect class="cls-8" x="0.5" y="0.5" width="21.841" height="13.935" rx="4.5"/>
      </g>
      <line id="Line_7" data-name="Line 7" class="cls-6" x2="24.598" transform="translate(34.566 24.614)"/>
      <line id="Line_8" data-name="Line 8" class="cls-6" x2="24.598" transform="translate(34.566 29.885)"/>
      <line id="Line_9" data-name="Line 9" class="cls-6" x2="24.598" transform="translate(34.566 36.035)"/>
    </g>
  </g>
</svg>
