<svg xmlns="http://www.w3.org/2000/svg" viewBox="0 0 329 422">
  <defs>
    <style>
      .cls-1 {
        fill: #ebebeb;
      }

      .cls-2 {
        fill: #fefefe;
      }

      .cls-3 {
        fill: #fff;
      }

      .cls-4 {
        fill: #d1cdcd;
      }

      .cls-5 {
        fill: #d0cccc;
      }
    </style>
  </defs>
  <g id="chat_stor" transform="translate(-22 -148)">
    <rect id="chat_stor-2" data-name="chat_stor" class="cls-1" width="329" height="422" rx="7" transform="translate(22 148)"/>
    <g id="Group_64" data-name="Group 64" transform="translate(0 24)">
      <rect id="Rectangle_25" data-name="Rectangle 25" class="cls-2" width="210.471" height="60.007" rx="7" transform="translate(82 204)"/>
      <g id="Group_61" data-name="Group 61" transform="translate(49 27)">
        <circle id="Ellipse_70" data-name="Ellipse 70" class="cls-3" cx="15.418" cy="15.418" r="15.418" transform="translate(262.662 207)"/>
        <circle id="Ellipse_71" data-name="Ellipse 71" class="cls-4" cx="4.772" cy="4.772" r="4.772" transform="translate(273.676 212.139)"/>
        <path id="Path_65" data-name="Path 65" class="cls-4" d="M7.366,0c4.068,0,7.366,4.52,7.366,10.1,0,2.86-3.411,2.856-7.366,2.777C3.96,12.807,0,12.81,0,10.1,0,4.52,3.3,0,7.366,0Z" transform="translate(270.739 222.418)"/>
      </g>
    </g>
    <g id="Group_65" data-name="Group 65" transform="translate(3 19)">
      <rect id="Rectangle_26" data-name="Rectangle 26" class="cls-5" width="210.471" height="60.007" rx="7" transform="translate(78.946 300.441)"/>
      <g id="Group_62" data-name="Group 62" transform="translate(-54 26)">
        <circle id="Ellipse_76" data-name="Ellipse 76" class="cls-3" cx="15.418" cy="15.418" r="15.418" transform="translate(83.662 304)"/>
        <circle id="Ellipse_77" data-name="Ellipse 77" class="cls-4" cx="4.772" cy="4.772" r="4.772" transform="translate(94.676 309.139)"/>
        <path id="Path_69" data-name="Path 69" class="cls-4" d="M7.366,0c4.068,0,7.366,4.52,7.366,10.1,0,2.86-3.411,2.856-7.366,2.777C3.96,12.807,0,12.81,0,10.1,0,4.52,3.3,0,7.366,0Z" transform="translate(91.739 319.418)"/>
      </g>
    </g>
    <g id="Group_67" data-name="Group 67" transform="translate(3 -152.441)">
      <rect id="Rectangle_26-2" data-name="Rectangle 26" class="cls-5" width="210.471" height="48.448" rx="7" transform="translate(78.946 300.441)"/>
      <g id="Group_62-2" data-name="Group 62" transform="translate(29.662 319.441)">
        <circle id="Ellipse_76-2" data-name="Ellipse 76" class="cls-3" cx="15.418" cy="15.418" r="15.418"/>
        <circle id="Ellipse_77-2" data-name="Ellipse 77" class="cls-4" cx="4.772" cy="4.772" r="4.772" transform="translate(11.013 5.139)"/>
        <path id="Path_69-2" data-name="Path 69" class="cls-4" d="M7.366,0c4.068,0,7.366,4.52,7.366,10.1,0,2.86-3.411,2.856-7.366,2.777C3.96,12.807,0,12.81,0,10.1,0,4.52,3.3,0,7.366,0Z" transform="translate(8.076 15.418)"/>
      </g>
    </g>
    <g id="Group_66" data-name="Group 66" transform="translate(-1 66)">
      <rect id="Rectangle_27" data-name="Rectangle 27" class="cls-2" width="210.471" height="91.007" rx="7" transform="translate(83 397.922)"/>
      <g id="Group_63" data-name="Group 63" transform="translate(48 -9)">
        <circle id="Ellipse_78" data-name="Ellipse 78" class="cls-3" cx="15.418" cy="15.418" r="15.418" transform="translate(262.662 467)"/>
        <circle id="Ellipse_79" data-name="Ellipse 79" class="cls-4" cx="4.772" cy="4.772" r="4.772" transform="translate(273.676 472.139)"/>
        <path id="Path_70" data-name="Path 70" class="cls-4" d="M7.366,0c4.068,0,7.366,4.52,7.366,10.1,0,2.86-3.411,2.856-7.366,2.777C3.96,12.807,0,12.81,0,10.1,0,4.52,3.3,0,7.366,0Z" transform="translate(270.739 482.418)"/>
      </g>
    </g>
  </g>
</svg>
