<svg id="Lag_1" data-name="Lag 1" xmlns="http://www.w3.org/2000/svg" width="90.66mm" height="15.18mm" viewBox="0 0 257 43.02"><defs><style>.cls-1{fill:#fffdfd;}.cls-2{isolation:isolate;}.cls-3{fill:#707070;}</style></defs><title>glemt_login</title><g id="uni_login_ui" data-name="uni login ui"><path id="Rectangle_4" data-name="Rectangle 4" class="cls-1" d="M7,0H250c3.87,0,7,2.5,7,5.58V37.44c0,3.08-3.13,5.58-7,5.58H7c-3.87,0-7-2.5-7-5.58V5.58C0,2.5,3.13,0,7,0Z"/><g id="uni_login_ui-2" data-name="uni login ui"><g id="UNI_" data-name="UNI " class="cls-2"><g class="cls-2"><path class="cls-3" d="M89.18,26.87a6.9,6.9,0,0,1-2.5.49,6.47,6.47,0,0,1-5-2.18,6.89,6.89,0,0,1-1.34-2.3,8,8,0,0,1-.46-2.7,10,10,0,0,1,.43-3,7.08,7.08,0,0,1,1.28-2.47,6.18,6.18,0,0,1,2.12-1.69,6.64,6.64,0,0,1,3-.63,8.65,8.65,0,0,1,2.19.27,5.45,5.45,0,0,1,1.84.85A4.93,4.93,0,0,1,92.07,15a5.64,5.64,0,0,1,.75,2.15h-1.9a3.69,3.69,0,0,0-.52-1.41,3.23,3.23,0,0,0-.94-1,4,4,0,0,0-1.27-.57A5.73,5.73,0,0,0,86.68,14a4.5,4.5,0,0,0-2.24.52,4.36,4.36,0,0,0-1.52,1.37,6,6,0,0,0-.87,1.94,8.74,8.74,0,0,0-.28,2.23,7.36,7.36,0,0,0,.32,2.15A5.72,5.72,0,0,0,83,24.05a4.81,4.81,0,0,0,1.53,1.26,4.6,4.6,0,0,0,2.12.47,5.14,5.14,0,0,0,2-.36,4.15,4.15,0,0,0,1.45-1A4.27,4.27,0,0,0,91,23a4.81,4.81,0,0,0,.26-1.83H86.7v-1.6H93V27h-1.2l-.5-1.78A4.8,4.8,0,0,1,89.18,26.87Z"/><path class="cls-3" d="M97.29,12.76V27h-1.7V12.76Z"/><path class="cls-3" d="M107.26,26.38a4.74,4.74,0,0,1-2.92.88,5.48,5.48,0,0,1-2.16-.4,4.4,4.4,0,0,1-1.53-1.12A4.92,4.92,0,0,1,99.72,24a8.36,8.36,0,0,1-.35-2.18,6.2,6.2,0,0,1,.36-2.16,5.15,5.15,0,0,1,1-1.7,4.59,4.59,0,0,1,1.54-1.12,4.71,4.71,0,0,1,2-.4,4.25,4.25,0,0,1,2.29.57A4.5,4.5,0,0,1,108,18.48a5.56,5.56,0,0,1,.76,1.92,8,8,0,0,1,.17,2h-7.75a4.23,4.23,0,0,0,.16,1.29,3.14,3.14,0,0,0,.58,1.08,3,3,0,0,0,1,.75,3.71,3.71,0,0,0,1.47.28,3,3,0,0,0,1.77-.5,2.45,2.45,0,0,0,.91-1.52h1.68A4.17,4.17,0,0,1,107.26,26.38Zm-.41-6.64a2.86,2.86,0,0,0-.62-.93,2.93,2.93,0,0,0-.92-.62,2.84,2.84,0,0,0-1.17-.23,2.92,2.92,0,0,0-1.2.23,2.75,2.75,0,0,0-.91.63,3,3,0,0,0-.6.93,3.81,3.81,0,0,0-.26,1.13h6A3.65,3.65,0,0,0,106.85,19.74Z"/><path class="cls-3" d="M112.29,16.7v1.52h0a4,4,0,0,1,5.08-1.36,2.21,2.21,0,0,1,1.1,1.36,3.63,3.63,0,0,1,1.37-1.3,3.88,3.88,0,0,1,1.88-.46,5.14,5.14,0,0,1,1.41.17,2.87,2.87,0,0,1,1.08.53,2.44,2.44,0,0,1,.7.93,3.32,3.32,0,0,1,.25,1.37V27h-1.7V20.26a5.11,5.11,0,0,0-.08-.9,1.71,1.71,0,0,0-.3-.73,1.49,1.49,0,0,0-.61-.49,2.44,2.44,0,0,0-1-.18,2.7,2.7,0,0,0-2,.72,2.59,2.59,0,0,0-.72,1.92V27h-1.7V20.26a4.35,4.35,0,0,0-.09-.92,1.86,1.86,0,0,0-.31-.73,1.4,1.4,0,0,0-.59-.48,2.18,2.18,0,0,0-.95-.17,2.51,2.51,0,0,0-1.27.3A2.8,2.8,0,0,0,113,19a2.89,2.89,0,0,0-.48.87,2.47,2.47,0,0,0-.15.75V27h-1.71V16.7Z"/><path class="cls-3" d="M132.19,16.7v1.5h-2.06v6.42a1.6,1.6,0,0,0,.05.48.46.46,0,0,0,.19.28.89.89,0,0,0,.39.13,5.55,5.55,0,0,0,.65,0h.78V27h-1.3a6.08,6.08,0,0,1-1.13-.09,1.61,1.61,0,0,1-.76-.33,1.44,1.44,0,0,1-.44-.68,4.08,4.08,0,0,1-.14-1.16V18.2h-1.76V16.7h1.76V13.6h1.71v3.1Z"/><path class="cls-3" d="M141.44,12.76V27h-1.7V12.76Z"/><path class="cls-3" d="M143.84,19.75a5,5,0,0,1,1-1.72,4.57,4.57,0,0,1,1.58-1.15,5.28,5.28,0,0,1,2.17-.42,5.22,5.22,0,0,1,2.17.42A4.44,4.44,0,0,1,152.29,18a4.67,4.67,0,0,1,1,1.72,7.22,7.22,0,0,1,0,4.25,4.79,4.79,0,0,1-1,1.71,4.54,4.54,0,0,1-1.57,1.14,5.38,5.38,0,0,1-2.17.41,5.45,5.45,0,0,1-2.17-.41,4.68,4.68,0,0,1-1.58-1.14,5.12,5.12,0,0,1-1-1.71,7.22,7.22,0,0,1,0-4.25Zm1.73,3.8a3.7,3.7,0,0,0,.69,1.22,3.22,3.22,0,0,0,1,.75,3.13,3.13,0,0,0,2.5,0,3.18,3.18,0,0,0,1-.75,3.7,3.7,0,0,0,.69-1.22,5.1,5.1,0,0,0,.25-1.67,5,5,0,0,0-.25-1.67,3.65,3.65,0,0,0-.69-1.23,2.82,2.82,0,0,0-1-.76,3.13,3.13,0,0,0-2.5,0,2.85,2.85,0,0,0-1,.76,3.65,3.65,0,0,0-.69,1.23,5.29,5.29,0,0,0-.25,1.67A5.38,5.38,0,0,0,145.57,23.55Z"/><path class="cls-3" d="M163.35,30a4.75,4.75,0,0,1-3.65,1.25,6.82,6.82,0,0,1-1.47-.16,4.35,4.35,0,0,1-1.36-.51,3.06,3.06,0,0,1-1-.95,2.55,2.55,0,0,1-.44-1.42h1.7a1.27,1.27,0,0,0,.29.79,2.27,2.27,0,0,0,.66.52,3.28,3.28,0,0,0,.85.29,4.61,4.61,0,0,0,.88.09,3.18,3.18,0,0,0,1.42-.29,2.68,2.68,0,0,0,1-.8,3.39,3.39,0,0,0,.56-1.23,7.09,7.09,0,0,0,.17-1.58v-.68h0a2.88,2.88,0,0,1-1.34,1.41,4.11,4.11,0,0,1-1.89.45,4.55,4.55,0,0,1-2-.42,4.14,4.14,0,0,1-1.44-1.13,4.79,4.79,0,0,1-.87-1.66,6.69,6.69,0,0,1-.29-2,7.77,7.77,0,0,1,.24-1.89,5,5,0,0,1,.8-1.76,4.26,4.26,0,0,1,1.48-1.3,4.6,4.6,0,0,1,2.26-.51,3.74,3.74,0,0,1,1.8.43,2.9,2.9,0,0,1,1.28,1.29h0V16.7h1.6v9.46A5.47,5.47,0,0,1,163.35,30Zm-2.18-4.65a2.79,2.79,0,0,0,1-.92,4.39,4.39,0,0,0,.54-1.29,6.44,6.44,0,0,0,.17-1.44,6,6,0,0,0-.16-1.34,3.65,3.65,0,0,0-.52-1.19,2.48,2.48,0,0,0-.91-.85,2.61,2.61,0,0,0-1.36-.32,2.9,2.9,0,0,0-1.4.31,2.63,2.63,0,0,0-.95.83,3.29,3.29,0,0,0-.54,1.2,5.94,5.94,0,0,0-.17,1.42,6.72,6.72,0,0,0,.14,1.4,3.89,3.89,0,0,0,.48,1.27,2.83,2.83,0,0,0,.9.92,2.62,2.62,0,0,0,1.4.35A2.78,2.78,0,0,0,161.17,25.31Z"/><path class="cls-3" d="M167.17,14.84V12.76h1.7v2.08Zm1.7,1.86V27h-1.7V16.7Z"/><path class="cls-3" d="M173.12,16.7v1.64h0a3.56,3.56,0,0,1,3.36-1.88,4.41,4.41,0,0,1,1.7.28,2.63,2.63,0,0,1,1.1.78,3,3,0,0,1,.6,1.19,6.59,6.59,0,0,1,.16,1.53V27h-1.7V20a2,2,0,0,0-.56-1.52,2.05,2.05,0,0,0-1.54-.56,3.46,3.46,0,0,0-1.35.24,2.44,2.44,0,0,0-1,.68,2.66,2.66,0,0,0-.57,1,4.06,4.06,0,0,0-.19,1.29V27h-1.71V16.7Z"/></g></g></g></g></svg>
