<svg id="Layer_1" data-name="Layer 1" xmlns="http://www.w3.org/2000/svg" width="457.27" height="170.57" viewBox="0 0 457.27 170.57"><defs><style>.cls-1{fill:#fdfdfb;}</style></defs><title>kea</title><path class="cls-1" d="M402,0H323.75V19.66h77.16c26.52,0,34.64,8.36,36.55,21.37H358.32C328.92,41,315.8,52.42,315.8,78c0,25.75,13.29,37.24,43.07,37.24H457V49.36C457,16.16,439.06,0,402,0M437.9,95.54H361c-24.15,0-25.16-5.39-25.16-17.58,0-11.73,2.51-17.26,25.57-17.26H437.9Z"/><path class="cls-1" d="M172.11,73.26h78.52C280,73.26,293.11,62,293.11,36.8,293.11,11,280.27,0,250.07,0H208c-49.6,0-56.42,27.68-56.42,57.58S158.43,115.2,208,115.2h80.38V95.68h-79c-27.09,0-34.82-7.25-37.29-22.42M209.4,19.08H248c22.78,0,25.16,5.4,25.16,17.72,0,11.7-2.41,16.82-25.57,16.82H171.09c.57-24.3,6.95-34.54,38.31-34.54"/><polygon class="cls-1" points="113.42 0 19.89 89.48 19.89 0 0.47 0 0.47 115.22 20.97 115.22 65.87 72.2 116.94 115.22 147.63 115.22 80.26 58.82 141.49 0 113.42 0"/><path class="cls-1" d="M4.9,144.78v9.64H5l6.19-9.64h5.31L9.87,155.1l7.35,13.76H11.7L6.7,159l-1.8,2.73v7.15H0V144.78Z"/><path class="cls-1" d="M20.41,167.51c-2.27-2.09-2.65-5.93-2.65-10.69,0-7.32.91-12.51,8.26-12.51a9.07,9.07,0,0,1,4.12.81l.88-2.06,1.64.71-1,2.36c2.29,2.09,2.66,5.93,2.66,10.69,0,7.31-.91,12.51-8.27,12.51a9,9,0,0,1-4.11-.81l-.88,2-1.64-.7Zm8-18.41A2.48,2.48,0,0,0,26,147.88c-2.88,0-3.36,2.5-3.36,8.94a40.16,40.16,0,0,0,.2,5h.07Zm-4.76,15.41A2.41,2.41,0,0,0,26,165.76c2.9,0,3.38-2.46,3.38-8.94a40.52,40.52,0,0,0-.21-5h-.07Z"/><path class="cls-1" d="M37.19,144.78h8.2c4,0,6.9,1.48,6.9,6.1,0,2.6-1.26,4.59-3.67,5.27v.06c2.69.38,4.42,2.4,4.42,5.6,0,3.77-1.87,7.05-7.59,7.05H37.19Zm4.89,9.88h1.4c2.69,0,3.91-.91,3.91-3.17s-1.12-3.13-3.53-3.13H42.08Zm0,10.62H44c2.34,0,3.93-.84,3.93-3.64s-1.59-3.6-3.74-3.6H42.08Z"/><path class="cls-1" d="M69.68,144.78v4H61v5.66h8.17v4H61v6.47h9v4H56.1V144.78Z"/><path class="cls-1" d="M78.12,144.78,84,161.27h.07V144.78h4.5v24.08H83L77,152H77v16.86H72.47V144.78Z"/><path class="cls-1" d="M92,144.78h4.9V154h5.71v-9.2h4.9v24.08h-4.9v-10.7H96.9v10.7H92Z"/><path class="cls-1" d="M115.65,144.78h6l6.43,24.08H123l-1.13-5.1h-6.46l-1.13,5.1h-5.09Zm.64,15h4.76L118.71,149h-.07Z"/><path class="cls-1" d="M133.17,144.78l3.43,17.81h.1l3.61-17.81h5.07l-5.58,24.08h-6.29l-5.58-24.08Z"/><path class="cls-1" d="M152.83,144.78l5.92,16.49h.07V144.78h4.49v24.08h-5.58l-6-16.86h-.07v16.86h-4.49V144.78Z"/><path class="cls-1" d="M170.65,161.34v.71c0,2.26.65,3.71,3.24,3.71a2.78,2.78,0,0,0,2.92-3c0-2.19-1.12-3-4.35-4.12-4.36-1.48-6.36-3.27-6.36-7.28,0-4.69,2.89-7.08,7.52-7.08,4.35,0,7.51,1.85,7.51,6.47v.67h-4.69c0-2.26-.78-3.57-2.65-3.57a2.5,2.5,0,0,0-2.79,2.8c0,1.49.44,2.4,2.52,3.27l3.77,1.62c3.68,1.59,4.63,3.44,4.63,6.37,0,5.1-3.13,7.39-8.44,7.39-5.54,0-7.72-2.56-7.72-7v-1Z"/><path class="cls-1" d="M206.11,144.78v4h-8.68v5.66h8.17v4h-8.17v6.47h9v4H192.54V144.78Z"/><path class="cls-1" d="M208.9,144.78h9c4,0,6.46,2.08,6.46,6.21,0,3.19-1.29,5.35-4,5.93V157c3.33.43,3.83,2.26,3.91,7.35,0,2.53.17,3.85,1.09,4.32v.2h-5.31a4.66,4.66,0,0,1-.62-2.53l-.13-4.62c-.07-1.9-.91-3-2.89-3H213.8v10.19h-4.9Zm4.9,10.52h2c2.35,0,3.67-1,3.67-3.61,0-2.22-1.19-3.33-3.4-3.33H213.8Z"/><path class="cls-1" d="M227.82,144.78h4.9V154h5.71v-9.2h4.9v24.08h-4.9v-10.7h-5.71v10.7h-4.9Z"/><path class="cls-1" d="M250.38,144.78l3.43,17.81h.1l3.61-17.81h5.06L257,168.86h-6.29l-5.59-24.08Z"/><path class="cls-1" d="M278,144.78v4h-8.68v5.66h8.16v4h-8.16v6.47h9v4H264.39V144.78Z"/><path class="cls-1" d="M280.75,144.78h9.06c4,0,6.46,2.08,6.46,6.21,0,3.19-1.29,5.35-4,5.93V157c3.33.43,3.84,2.26,3.9,7.35,0,2.53.18,3.85,1.1,4.32v.2h-5.32a4.75,4.75,0,0,1-.61-2.53l-.13-4.62c-.07-1.9-.92-3-2.89-3h-2.63v10.19h-4.9Zm4.9,10.52h2.05c2.34,0,3.67-1,3.67-3.61,0-2.22-1.19-3.33-3.4-3.33h-2.32Z"/><path class="cls-1" d="M303.32,144.78l3.43,17.81h.1l3.61-17.81h5.07L310,168.86h-6.3l-5.57-24.08Z"/><path class="cls-1" d="M321.28,161.34v.71c0,2.26.64,3.71,3.23,3.71a2.79,2.79,0,0,0,2.93-3c0-2.19-1.13-3-4.36-4.12-4.35-1.48-6.36-3.27-6.36-7.28,0-4.69,2.89-7.08,7.52-7.08,4.35,0,7.52,1.85,7.52,6.47v.67h-4.7c0-2.26-.78-3.57-2.65-3.57a2.5,2.5,0,0,0-2.79,2.8c0,1.49.44,2.4,2.51,3.27l3.78,1.62c3.67,1.59,4.64,3.44,4.64,6.37,0,5.1-3.15,7.39-8.45,7.39-5.54,0-7.72-2.56-7.72-7v-1Z"/><path class="cls-1" d="M339.72,144.78h6l6.44,24.08H347.1l-1.13-5.1h-6.46l-1.12,5.1h-5.1Zm.65,15h4.76L342.78,149h-.07Z"/><path class="cls-1" d="M358.77,144.78v9.64h.07l6.19-9.64h5.31l-6.6,10.32,7.35,13.76h-5.51l-5-9.88-1.81,2.73v7.15h-4.89V144.78Z"/><path class="cls-1" d="M376.88,144.78h6.05l6.43,24.08h-5.1l-1.13-5.1h-6.46l-1.13,5.1h-5.09Zm.64,15h4.77L379.94,149h-.07Z"/><path class="cls-1" d="M391.31,144.78h8c6.81,0,8,4.62,8,11.7,0,8.53-1.83,12.38-8.34,12.38h-7.71Zm4.89,20.5h2.18c3.4,0,4.09-2.12,4.09-8.66,0-5.47-.46-8.26-4.2-8.26H396.2Z"/><path class="cls-1" d="M424.16,144.78v4h-8.67v5.66h8.17v4h-8.17v6.47h9v4H410.59V144.78Z"/><path class="cls-1" d="M427.06,144.78h7.28l3.47,17h.07l3.5-17h7.25v24.08h-4.5V149.63h-.06l-4.32,19.23h-3.81l-4.32-19.23h-.07v19.23h-4.49Z"/><path class="cls-1" d="M452.37,168.86V144.78h4.9v24.08Z"/></svg>
