<svg id="kea_logo" xmlns="http://www.w3.org/2000/svg" viewBox="0 0 227.977 85.041">
  <defs>
    <style>
      .cls-1 {
        fill: #fff;
      }
    </style>
  </defs>
  <path id="Path_4" data-name="Path 4" class="cls-1" d="M140.858,0H101.845V9.8h38.472c13.22,0,17.267,4.166,18.223,10.653H119.08c-14.657,0-21.2,5.678-21.2,18.411,0,12.841,6.624,18.565,21.473,18.565H168.3V24.61C168.3,8.055,159.336,0,140.858,0m17.895,47.629H120.4c-12.043,0-12.546-2.691-12.546-8.768,0-5.848,1.251-8.605,12.752-8.605H158.76Z" transform="translate(59.561 0)"/>
  <path id="Path_5" data-name="Path 5" class="cls-1" d="M57.211,36.521H96.359c14.65,0,21.182-5.607,21.182-18.176,0-12.868-6.405-18.337-21.461-18.337H75.12C50.393,0,46.991,13.8,46.991,28.71s3.4,28.717,28.129,28.717H115.2V47.7H75.8c-13.511,0-17.362-3.611-18.593-11.174M75.8,9.509H95.043c11.356,0,12.546,2.691,12.546,8.832,0,5.831-1.2,8.383-12.752,8.383H56.7c.286-12.11,3.466-17.211,19.1-17.211" transform="translate(28.594 0.005)"/>
  <path id="Path_6" data-name="Path 6" class="cls-1" d="M56.459,0,9.83,44.61V0H.145V57.443h10.22L32.754,36,58.212,57.443h15.3L39.926,29.326,70.454,0Z" transform="translate(0.088)"/>
  <g id="Group_4" data-name="Group 4" transform="translate(0 71.322)">
    <g id="Group_2" data-name="Group 2">
      <path id="Path_7" data-name="Path 7" class="cls-1" d="M2.443,44.876v4.806h.034l3.087-4.806H8.2L4.912,50.023l3.664,6.86H5.836l-2.495-4.93-.9,1.361v3.564H0v-12Z" transform="translate(0 -44.015)"/>
      <path id="Path_8" data-name="Path 8" class="cls-1" d="M6.826,56.53C5.7,55.493,5.505,53.575,5.505,51.2c0-3.648.455-6.238,4.121-6.238a4.5,4.5,0,0,1,2.052.405l.439-1.029.817.354-.513,1.177c1.142,1.041,1.327,2.956,1.327,5.329,0,3.648-.457,6.238-4.123,6.238a4.481,4.481,0,0,1-2.051-.4L7.134,58.06l-.816-.352Zm3.979-9.176a1.237,1.237,0,0,0-1.185-.606c-1.44,0-1.678,1.243-1.678,4.454a19.624,19.624,0,0,0,.1,2.488h.031ZM8.437,55.038a1.2,1.2,0,0,0,1.187.621c1.448,0,1.681-1.227,1.681-4.456a20.589,20.589,0,0,0-.1-2.488h-.037Z" transform="translate(3.35 -44.341)"/>
      <path id="Path_9" data-name="Path 9" class="cls-1" d="M11.527,44.876h4.086c2,0,3.444.737,3.444,3.042a2.511,2.511,0,0,1-1.83,2.627v.031a2.548,2.548,0,0,1,2.2,2.791c0,1.882-.935,3.515-3.783,3.515H11.527Zm2.44,4.925h.7c1.341,0,1.951-.455,1.951-1.581s-.561-1.563-1.769-1.563h-.885Zm0,5.3h.954c1.168,0,1.964-.421,1.964-1.819s-.8-1.8-1.864-1.8H13.969Z" transform="translate(7.014 -44.015)"/>
      <path id="Path_10" data-name="Path 10" class="cls-1" d="M24.162,44.876v1.982h-4.33v2.825H23.9V51.67H19.832V54.9h4.491V56.88H17.39v-12Z" transform="translate(10.582 -44.015)"/>
      <path id="Path_11" data-name="Path 11" class="cls-1" d="M25.279,44.876l2.95,8.218h.034V44.876H30.5v12H27.718l-2.981-8.408H24.7v8.408H22.461v-12Z" transform="translate(13.667 -44.015)"/>
      <path id="Path_12" data-name="Path 12" class="cls-1" d="M28.515,44.876h2.443v4.586H33.8V44.876h2.443v12H33.8V51.546H30.952v5.331H28.515Z" transform="translate(17.351 -44.015)"/>
      <path id="Path_13" data-name="Path 13" class="cls-1" d="M37.056,44.876h3.016l3.207,12H40.738l-.563-2.54H36.958l-.561,2.54H33.855Zm.322,7.476H39.75l-1.168-5.393h-.037Z" transform="translate(20.601 -44.015)"/>
      <path id="Path_14" data-name="Path 14" class="cls-1" d="M42.264,44.876l1.713,8.879h.05l1.8-8.879h2.525l-2.783,12H42.433l-2.781-12Z" transform="translate(24.128 -44.015)"/>
      <path id="Path_15" data-name="Path 15" class="cls-1" d="M48.435,44.876l2.953,8.218h.034V44.876h2.239v12H50.879L47.9,48.471H47.86v8.408H45.619v-12Z" transform="translate(27.759 -44.015)"/>
      <path id="Path_16" data-name="Path 16" class="cls-1" d="M53.82,53.23v.354c0,1.126.322,1.85,1.608,1.85a1.388,1.388,0,0,0,1.456-1.478c0-1.1-.558-1.5-2.171-2.052-2.171-.742-3.169-1.633-3.169-3.634a3.305,3.305,0,0,1,3.746-3.529c2.171,0,3.746.923,3.746,3.228V48.3H56.7c0-1.126-.386-1.779-1.319-1.779a1.243,1.243,0,0,0-1.4,1.387c0,.742.22,1.194,1.256,1.629l1.879.8a3.064,3.064,0,0,1,2.31,3.177c0,2.541-1.563,3.683-4.206,3.683-2.765,0-3.852-1.279-3.852-3.5v-.483Z" transform="translate(31.262 -44.117)"/>
      <path id="Path_17" data-name="Path 17" class="cls-1" d="M66.443,44.876v1.982H62.126v2.825H66.2V51.67h-4.07V54.9H66.62V56.88H59.678v-12Z" transform="translate(36.314 -44.015)"/>
      <path id="Path_18" data-name="Path 18" class="cls-1" d="M64.75,44.885h4.5a2.857,2.857,0,0,1,3.217,3.093,2.63,2.63,0,0,1-2.011,2.958v.034c1.662.217,1.913,1.126,1.953,3.664.016,1.259.082,1.919.542,2.152v.1H70.312A2.3,2.3,0,0,1,70,55.627l-.068-2.3c-.034-.946-.455-1.512-1.448-1.512h-1.3v5.076H64.75Zm2.443,5.245h1.015c1.174,0,1.834-.507,1.834-1.8a1.5,1.5,0,0,0-1.7-1.662H67.193Z" transform="translate(39.4 -44.025)"/>
      <path id="Path_19" data-name="Path 19" class="cls-1" d="M70.612,44.876h2.442v4.586H75.9V44.876h2.443v12H75.9V51.546H73.055v5.331H70.612Z" transform="translate(42.967 -44.015)"/>
      <path id="Path_20" data-name="Path 20" class="cls-1" d="M78.586,44.876,80.3,53.755h.058l1.8-8.879h2.525l-2.779,12H78.763l-2.784-12Z" transform="translate(46.233 -44.015)"/>
      <path id="Path_21" data-name="Path 21" class="cls-1" d="M88.717,44.876v1.982H84.391v2.825h4.074V51.67H84.391V54.9h4.5V56.88H81.948v-12Z" transform="translate(49.865 -44.015)"/>
      <path id="Path_22" data-name="Path 22" class="cls-1" d="M87.02,44.885h4.513a2.855,2.855,0,0,1,3.217,3.093c0,1.594-.643,2.67-2.017,2.958v.034c1.66.217,1.914,1.126,1.948,3.664.016,1.259.087,1.919.545,2.152v.1H92.582a2.343,2.343,0,0,1-.3-1.259l-.068-2.3c-.034-.946-.458-1.512-1.448-1.512H89.457v5.076H87.02Zm2.442,5.245h1.021c1.168,0,1.83-.507,1.83-1.8a1.5,1.5,0,0,0-1.7-1.662H89.462Z" transform="translate(52.952 -44.025)"/>
      <path id="Path_23" data-name="Path 23" class="cls-1" d="M95,44.876l1.713,8.879h.05l1.8-8.879h2.529l-2.783,12h-3.14l-2.779-12Z" transform="translate(56.219 -44.015)"/>
      <path id="Path_24" data-name="Path 24" class="cls-1" d="M100.5,53.23v.354c0,1.126.322,1.85,1.609,1.85a1.39,1.39,0,0,0,1.461-1.478c0-1.1-.561-1.5-2.171-2.052-2.171-.742-3.174-1.633-3.174-3.634a3.307,3.307,0,0,1,3.748-3.529c2.171,0,3.749.923,3.749,3.228V48.3h-2.342c0-1.126-.391-1.779-1.322-1.779a1.243,1.243,0,0,0-1.39,1.395c0,.742.222,1.194,1.253,1.629l1.885.8a3.075,3.075,0,0,1,2.31,3.177c0,2.541-1.567,3.683-4.209,3.683-2.765,0-3.849-1.279-3.849-3.5v-.483Z" transform="translate(59.67 -44.117)"/>
      <path id="Path_25" data-name="Path 25" class="cls-1" d="M106.517,44.876h3.019l3.206,12H110.2l-.563-2.54h-3.217l-.561,2.54H103.3Zm.322,7.476h2.374l-1.169-5.393h-.034Z" transform="translate(62.858 -44.015)"/>
    </g>
    <path id="Path_26" data-name="Path 26" class="cls-1" d="M112.126,44.876v4.806h.031l3.09-4.806h2.646L114.6,50.023l3.663,6.86h-2.747l-2.495-4.925-.9,1.361v3.564h-2.443V44.876Z" transform="translate(66.74 -44.015)"/>
    <g id="Group_3" data-name="Group 3" transform="translate(184.688 0.861)">
      <path id="Path_27" data-name="Path 27" class="cls-1" d="M118.026,44.876h3.019l3.207,12H121.7l-.565-2.54h-3.217l-.563,2.54h-2.54Zm.322,7.476h2.376l-1.171-5.393h-.035Z" transform="translate(-114.82 -44.876)"/>
      <path id="Path_28" data-name="Path 28" class="cls-1" d="M121.287,44.876h4c3.392,0,4.005,2.3,4.005,5.834,0,4.251-.915,6.169-4.158,6.169h-3.849Zm2.435,10.22h1.086c1.7,0,2.038-1.06,2.038-4.32,0-2.723-.225-4.118-2.091-4.118h-1.033Z" transform="translate(-110.886 -44.876)"/>
      <path id="Path_29" data-name="Path 29" class="cls-1" d="M134.032,44.876v1.982h-4.325v2.825h4.074V51.67h-4.074V54.9h4.5V56.88h-6.939v-12Z" transform="translate(-107.248 -44.876)"/>
      <path id="Path_30" data-name="Path 30" class="cls-1" d="M132.37,44.876H136l1.729,8.474h.034l1.747-8.474h3.613v12H140.88V47.294h-.032l-2.155,9.585h-1.9l-2.155-9.585H134.6v9.585h-2.236Z" transform="translate(-104.142 -44.876)"/>
      <path id="Path_31" data-name="Path 31" class="cls-1" d="M140.214,56.879v-12h2.443v12Z" transform="translate(-99.368 -44.876)"/>
    </g>
  </g>
</svg>
