<svg xmlns="http://www.w3.org/2000/svg" viewBox="0 0 19 27.461">
  <defs>
    <style>
      .cls-1, .cls-4 {
        fill: #fff;
      }

      .cls-2 {
        fill: none;
      }

      .cls-3, .cls-4 {
        stroke: none;
      }
    </style>
  </defs>
  <g id="lock_ui" transform="translate(-334 -21.539)">
    <rect id="Rectangle_8" data-name="Rectangle 8" class="cls-1" width="19" height="19" rx="3" transform="translate(334 30)"/>
    <g id="Path_35" data-name="Path 35" class="cls-2" transform="translate(336 21.539)">
      <path class="cls-3" d="M7.4,0c4.089,0,7.4,4.494,7.4,10.038,0,2.567-14.809,2.977-14.809,0C0,4.494,3.315,0,7.4,0Z"/>
      <path class="cls-4" d="M 7.40460205078125 2.999995231628418 C 6.054121971130371 2.999995231628418 5.057122230529785 4.078255653381348 4.583011627197266 4.72099494934082 C 3.793313026428223 5.79158878326416 3.267983436584473 7.21596097946167 3.078573226928711 8.753862380981445 C 3.864798545837402 8.937321662902832 5.180452346801758 9.120204925537109 6.995481967926025 9.120204925537109 C 9.089394569396973 9.120204925537109 10.74306106567383 8.880132675170898 11.71632671356201 8.642691612243652 C 11.51568412780762 7.147470951080322 10.99679470062256 5.765699863433838 10.22619247436523 4.72099494934082 C 9.752081871032715 4.078255653381348 8.755082130432129 2.999995231628418 7.40460205078125 2.999995231628418 M 7.40460205078125 -4.76837158203125e-06 C 11.49405193328857 -4.76837158203125e-06 14.80920219421387 4.494325637817383 14.80920219421387 10.03835487365723 C 14.80920219421387 11.36894798278809 10.82863616943359 12.12020111083984 6.995483875274658 12.12020111083984 C 3.434032440185547 12.12020111083984 1.9073486328125e-06 11.47223567962646 1.9073486328125e-06 10.03835487365723 C 1.9073486328125e-06 4.494325637817383 3.315152168273926 -4.76837158203125e-06 7.40460205078125 -4.76837158203125e-06 Z"/>
    </g>
  </g>
</svg>
