<svg xmlns="http://www.w3.org/2000/svg" viewBox="0 0 112.035 105.659">
  <defs>
    <style>
      .cls-1 {
        fill: #ffb4aa;
      }

      .cls-2 {
        fill: #fff;
        stroke: #707070;
      }

      .cls-3 {
        fill: #8b748d;
      }
    </style>
  </defs>
  <g id="skema_logo" transform="translate(-49 -181.053)">
    <ellipse id="Ellipse_2" data-name="Ellipse 2" class="cls-1" cx="56.018" cy="52.83" rx="56.018" ry="52.83" transform="translate(49 181.053)"/>
    <g id="Group_20" data-name="Group 20" transform="translate(70.641 214.445)">
      <path id="Path_50" data-name="Path 50" class="cls-2" d="M60.322,12.584c1.259-.381,3.421-3.1,3.386-6.19C63.677,3.462,61.336.859,60.322.569,58.387.015,1.893-.4.6.637-.747,1.714.6,3.9.6,3.9s56.586.234,58.008.1,1.636,5,0,5.506-56.973,0-56.973,0-1.275,2.991,0,3.281S57.678,13.385,60.322,12.584Z" transform="translate(64.459 38.62) rotate(180)"/>
      <path id="Path_52" data-name="Path 52" class="cls-2" d="M60.322,12.584c1.259-.381,3.421-3.1,3.386-6.19C63.677,3.462,61.336.859,60.322.569,58.387.015,1.893-.4.6.637-.747,1.714.6,3.9.6,3.9s56.586.234,58.008.1,1.636,5,0,5.506-56.973,0-56.973,0-1.275,2.991,0,3.281S57.678,13.385,60.322,12.584Z" transform="translate(69.714 25.857) rotate(180)"/>
      <path id="Path_54" data-name="Path 54" class="cls-2" d="M60.322,12.584c1.259-.381,3.421-3.1,3.386-6.19C63.677,3.462,61.336.859,60.322.569,58.387.015,1.893-.4.6.637-.747,1.714.6,3.9.6,3.9s56.586.234,58.008.1,1.636,5,0,5.506-56.973,0-56.973,0-1.275,2.991,0,3.281S57.678,13.385,60.322,12.584Z" transform="translate(63.708 13.094) rotate(180)"/>
      <path id="Path_51" data-name="Path 51" class="cls-3" d="M1046.062,311.709s-53.9.132-54.528.014-1.429-4.206.26-4.8,8.918-.456,14.5-.444c13.6.028,33.3.187,39.462.245Z" transform="translate(-985.822 -277.414)"/>
      <path id="Path_53" data-name="Path 53" class="cls-3" d="M1046.062,311.709s-53.9.132-54.528.014-1.429-4.206.26-4.8,8.918-.456,14.5-.444c13.6.028,33.3.187,39.462.245Z" transform="translate(-980.567 -290.177)"/>
      <path id="Path_55" data-name="Path 55" class="cls-3" d="M1046.062,311.709s-53.9.132-54.528.014-1.429-4.206.26-4.8,8.918-.456,14.5-.444c13.6.028,33.3.187,39.462.245Z" transform="translate(-986.573 -302.94)"/>
    </g>
  </g>
</svg>
